/* XPM */
static char *_2ad4a5cf70243a6f402869b666a975bMoPgzeAdhNi3ybSf[] = {
/* columns rows colors chars-per-pixel */
"16 32 16 1 ",
"  c None",
". c #3A3A50",
"X c #46465E",
"o c #555157",
"O c #5D585F",
"+ c #565972",
"@ c #716B6E",
"# c #6C6E85",
"$ c #787D93",
"% c #B59E95",
"& c #E19B9B",
"* c #C9A495",
"= c #F6AE9F",
"- c #FFCBB0",
"; c #C2B8D5",
": c #D8D0E0",
/* pixels */
"                ",
"                ",
"                ",
"                ",
"                ",
"                ",
"                ",
"                ",
"                ",
"    XXXXX++     ",
"   XOO@@@@@+    ",
"  XOO@@@@@OO+   ",
"  XOO@@@OOOOX   ",
" XoOO@@OOOOOOX  ",
" .ooOOOOOOOOOX  ",
" .oooOOOOOOOOX  ",
" .ooooOO%%OOOX  ",
" .ooooo-----=X  ",
" Xoooo*------+  ",
"  Xoo=-----.-X  ",
"  .oo==----#&.  ",
"   .&===-===.   ",
"    .....XXX+   ",
"    .+.++X;.-X  ",
"    ..+#XX:.=X  ",
"    .X--+#X.X   ",
"    .X=-+##..   ",
"   .X.XX....X.  ",
"   .#XXXX++++#. ",
"    ..X+$+XX##. ",
"           X..  ",
"                "
};
