/* XPM */
static char *_4dccb65a9af43dc89d13dccb2cd2d80hkQtoKSwMQc13MRp[] = {
/* columns rows colors chars-per-pixel */
"16 32 10 1 ",
"  c None",
". c #3A3A50",
"X c #46465E",
"o c #555157",
"O c #5D585F",
"+ c #565972",
"@ c #716B6E",
"# c #6C6E85",
"$ c #F6AE9F",
"% c #FFCBB0",
/* pixels */
"                ",
"                ",
"                ",
"                ",
"                ",
"                ",
"                ",
"                ",
"                ",
"    ++XXXXXX    ",
"   +@@@@@@OOX   ",
"  +@@@@@@@@OOX  ",
"  X@@@@@@@@OOX  ",
" XoO@@@@@OOOOoX ",
" .oOOOOOOOOOOo. ",
" .oOOOOOOOOOOo. ",
" .ooOOOOOOOOoo. ",
" .oooooooooooo. ",
" XooooooooooooX ",
" .XooooooooooX  ",
"X%$.oooooooo.   ",
"X$.+........+.  ",
" X++++++++++##. ",
" X++#########.%.",
"  X.########.$%.",
"   .+######+... ",
"   .X++++++X.   ",
"   .+......+.   ",
"   .+++XX...    ",
"   .##.         ",
"   .##.         ",
"    ..          "
};
